<?xml version="1.0" encoding="utf-8"?>
<!-- Generator: Adobe Illustrator 22.1.0, SVG Export Plug-In . SVG Version: 6.00 Build 0)  -->
<svg version="1.1" id="Слой_1" xmlns="http://www.w3.org/2000/svg" xmlns:xlink="http://www.w3.org/1999/xlink" x="0px" y="0px"
	 viewBox="0 0 595.3 841.9" style="enable-background:new 0 0 595.3 841.9;" xml:space="preserve">
<style type="text/css">
	.st0{fill:none;stroke:#000000;stroke-width:12;}
	.st1{fill:none;stroke:#000000;stroke-width:9;}
</style>
<g>
	<path d="M562,329.9c1-16.4,1.9-32.8,2.9-49.3c-37.8,7.5-75.6,15-113.4,22.6c27.8,45,55.5,90,83.3,135c-15.3,3.2-24.9,5.4-31.1,6.9
		c-1.9,0.5-6.8,1.6-13.5,2.9c-6.1,1.2-9.2,1.8-11.9,2c-4.9,0.4-16.2,1.4-23.7-5.5c-4.5-4.1-5.9-9.4-7.2-14.3
		c-1.6-6.2-1.5-11.5-1.2-14.9c-1.3,0-2.6,0-3.9,0c-0.3,15.9-0.5,31.8-0.8,47.7c38.4-7.9,76.8-15.8,115.2-23.7
		c-26.9-45.2-53.8-90.4-80.7-135.7c9.1-2.1,37.5-8.4,60.3-11.4c2-0.3,5.6-0.5,9.3,1.3c12.7,6.1,12.5,29.8,12.3,36.3
		C559.2,329.8,560.6,329.8,562,329.9z"/>
	<path d="M143,479.6c-0.1,15.3-0.2,30.6-0.3,45.8c-38.4,7.9-76.8,15.8-115.2,23.7c32.5-56.9,64.9-113.8,97.4-170.8
		c-17.4,3.6-34.7,7.3-52.1,10.9c-4.5,1.1-14.9,4.2-21.8,13.7c-4.4,5.9-5.8,12.1-6.8,16.7c-1.6,7.1-1.6,13.2-1.3,17.3
		c-1.6,0.2-3.2,0.4-4.8,0.7c-0.2-16-0.3-32.1-0.5-48.1c37.7-6.9,75.4-13.8,113.2-20.7c-32.3,56.7-64.6,113.3-96.8,170
		c19.7-4.1,39.4-8.1,59.2-12.2c4.5-1.9,12.6-6.2,18-15c4.3-6.9,5.3-14,6-19.2c0.7-5.1,0.7-9.5,0.5-12.7
		C139.3,479.7,141.2,479.6,143,479.6z"/>
	<path d="M280.3,452.2c0.1,14.4,0.2,28.9,0.3,43.3c-38.3,7.9-76.6,15.8-114.8,23.7c-0.1-1.1-0.1-2.3-0.2-3.4c2-0.1,5.5-0.6,9-2.8
		c7.1-4.4,8.7-12.1,9-13.6c0-38.6,0-77.2,0.1-115.8c0-1.3,0-2.6,0-3.9c0-1.1,0.2-6.9-3.7-9.9c-2.4-1.9-5.6-2.1-9.1-2.3
		c-2.2-0.1-4,0-5.2,0.1c0-1,0-2,0-3c36.6-7.7,73.1-15.4,109.7-23.1c0.1,13.3,0.1,26.6,0.2,39.8c-1.9,0.1-3.8,0.1-5.7,0.2
		c0.1-1.7,0.7-21.8-10.4-27.3c-4.4-2.2-9.7-1.6-18.2-0.7c-1.7,0.2-0.1,0.1-15,2.9c-3.2,0.6-7.7,1.5-13.2,3.7c-0.9,0.4-1.6,0.7-2,0.9
		c-1.1,0.8-2.4,2-3.7,3.5c-0.8,0.9-1.4,1.8-1.9,2.7c-0.4,0.6-0.9,1.4-1.3,2.5c-0.5,1.4-0.5,2.6-0.5,3c0,1.3-0.1,25.5-0.1,58.2
		c2.7-0.4,6.5-1.1,11.1-2.1c4.9-1.1,7.3-1.7,9-2.4c7.5-3.5,11.2-10.5,12.2-12.7c1.8-3.9,2.3-7.4,2.6-9.8c0.4-3.6,0.3-6.7,0-8.9
		c1.7-0.1,3.4-0.3,5.1-0.4c0,20.4,0,40.8-0.1,61.1c-1.8,0-3.6,0.1-5.3,0.1c0.3-1.7,0.5-4.2,0.3-7.2c-0.2-2.5-0.4-5.5-2.1-8.6
		c-0.5-0.9-2.8-5.2-7.6-7.3c-3.7-1.6-7.2-0.9-14.1,0.4c-4.7,0.9-8.5,2.1-11,2.9c0.4,21.2,0.8,42.5,1.2,63.7c1.5,1.3,3.9,3.1,7.3,3.8
		c2.4,0.5,4.3,0.3,9.9-0.7c8.2-1.4,10-1.8,10-1.8c13.3-3,19.9-4.5,21.1-5.1c10.1-4.8,15.3-13.2,16.2-14.7c4.1-6.9,4.9-13.5,5.4-17.6
		c0.6-4.7,0.4-8.7,0.2-11.6C276.6,452.2,278.4,452.2,280.3,452.2z"/>
	<path d="M433.6,311.6c-1.9,0.2-7.6,1.1-12.5,5.8c-3.4,3.3-4.8,6.9-5.4,8.8c-0.3,40.4-0.3,56.2-0.3,62.4c0,0.7,0.1,5.4,0,11.7
		c0,5.4,0,9.2-0.1,12.5c-0.2,4.5-0.4,11.8-1.9,19.3c-1.1,5.4-2.9,14.1-9,23.5c-6.4,9.8-14.2,15.4-17.8,17.7
		c-12.7,8-24.7,8.9-29.7,9.2c-6.6,0.4-15.3,0.9-24.5-4c-1.9-1-6.3-3.5-10.3-8c-10.8-12.1-9.8-28.1-9.4-31.9
		c-0.1-26.9-0.1-53.8-0.2-80.8c0-2,0-4,0-6.1c0-0.9,0.2-5.4-3-8.3c-2.6-2.4-5.9-2.5-8.6-2.5c-3-0.1-5.4,0.6-6.9,1.1l-0.8-4.2
		c19.1-4,38.1-7.9,57.2-11.9c0,1.2,0,2.4-0.1,3.6c-1.7,0.2-4.2,0.7-7,2c-3.9,1.9-6.2,4.6-6.9,5.5c-2.3,2.9-3.4,5.8-3.8,7.5
		c0,30.2-0.1,60.3-0.1,90.5c0,1.8,0.1,4.4,0.5,7.5c1,7.9,2.3,18,9.8,24.6c6.6,5.8,14.9,6.1,18,6.2c8.3,0.3,14.4-2.8,20.2-5.8
		c4.3-2.2,11.4-6,17.5-13.9c5.6-7.2,7.4-14.3,9.2-21.1c2.1-8,2.5-15.1,2.7-18.5c0.2-2.7,0.2-6,0.3-12.6c0.1-6.8,0-11.8,0-12.3
		c0-8,0-30.2-0.2-60c-0.5-1.6-1.7-4.8-4.7-6.9c-3-2.1-6.3-2.1-9.3-2.1c-2.8,0-5.1,0.5-6.6,0.9c-0.2-1.3-0.4-2.7-0.6-4
		c14.8-2.9,29.5-5.8,44.3-8.6C433.5,309.3,433.6,310.4,433.6,311.6z"/>
</g>
<line class="st0" x1="38.3" y1="325.1" x2="562.3" y2="214.9"/>
<circle cx="38.8" cy="325" r="6"/>
<circle cx="562.8" cy="214.8" r="6"/>
<line class="st0" x1="34.1" y1="619.8" x2="558.1" y2="509.5"/>
<circle cx="34.6" cy="619.7" r="6"/>
<circle cx="558.6" cy="509.4" r="6"/>
<line class="st1" x1="38.7" y1="297.1" x2="472.3" y2="205.8"/>
<circle cx="39.1" cy="297" r="4.5"/>
<circle cx="472.7" cy="205.7" r="4.6"/>
<line class="st1" x1="129.2" y1="628.4" x2="562.9" y2="537.2"/>
<circle cx="129.7" cy="628.4" r="4.5"/>
<circle cx="563.3" cy="537.1" r="4.6"/>
<g>
	<path d="M48.7,251.9c-0.3-3-1.9-5.5-4.3-6.4c-1.6-0.6-3.3-0.3-3.7-0.2c-0.8,0.2-2.6,0.5-3.7,2.1c-1.4,1.9-0.8,4.3-0.6,5
		c0.1,0.5,0.5,1.8,1.5,2.9c1.5,1.6,3.2,1.7,5.1,2.3c1.6,0.4,6.1,1.7,8.2,4.7c2.1,2.9,1.7,7.2,0.3,10.2c-1.7,3.4-4.8,4.9-5.7,5.4
		c-1.5,0.7-2.8,1-3.2,1c-0.7,0.1-2.4,0.4-4.5,0c-2-0.4-2.6-1.1-3.6-0.8c-1,0.3-1.5,1.3-1.9,2.1c-0.4,0-0.8-0.1-1.1-0.1c0-4,0-8,0-12
		c0.6,0,1.3,0,1.9,0c-0.1,0.8-0.2,2.2,0.2,3.8c0.2,0.8,0.4,1.8,1.1,2.8c1.2,1.7,3.1,2.3,3.5,2.4c4,1.1,7.4-2.5,7.6-2.8
		c0.6-0.7,1.6-1.8,1.8-3.6c0.2-1.7-0.6-3-0.8-3.5c-1.2-2.2-3.1-2.7-7.3-4.8c-3.9-2-5.9-3-6.8-4.3c-2.5-3.7-0.4-8.7-0.3-8.9
		c0.2-0.5,1.7-3.8,5.4-5.4c0.8-0.3,3.4-1.5,6.3-0.7c1.6,0.4,2.5,1.3,3.6,0.8c1-0.4,1.5-1.7,1.7-2.7c0.4,0,0.8-0.1,1.2-0.1
		c0,1.6,0,3.2,0,4.8c0,2,0,4,0.1,6C49.9,251.8,49.3,251.9,48.7,251.9z"/>
	<path d="M58.6,274.1c0-0.4-0.1-0.8-0.1-1.1c1.8,0,3.3-0.9,3.9-2.2c0.3-0.6,0.3-1.2,0.2-1.6c0-7.2,0-14.5,0-21.7c0-2.7,0-5.4,0-8
		l0,0l0,0c0-0.1,0-0.1,0-0.2c1.6,0.7,3.3,1.4,4.9,2l0,0l0,0c0,9.2,0,18.4,0.1,27.5c0,0.3,0.1,0.5,0.1,0.6c0.4,1,1.9,1.5,3.7,1.3
		c0,0.4,0,0.7,0,1.1C67.1,272.6,62.9,273.3,58.6,274.1z"/>
	<path d="M108.5,231.2c-0.3,0-0.8,0.1-1.4,0.3c-0.7,0.2-1.5,0.5-2.1,1.3c-0.6,0.8-0.6,1.7-0.6,2.1c0,3.4,0,6.8,0,10.2
		c0,6.6,0,13.1-0.1,19.7c-0.6,0-1.3,0-1.9,0c-6.3-8.5-12.6-16.9-19-25.4c0,1.5,0,10.8,0,12.3c0,1.7,0,11.5,0,13.2
		c0.1,0.3,0.3,0.9,0.9,1.3c0.5,0.4,1,0.5,1.5,0.5c0.7,0.1,1.2,0,1.6-0.1c0,0.4,0,0.9,0,1.3c-3.3,0.6-6.6,1.3-9.8,1.9
		c0-0.4,0-0.7,0-1.1c2.8-0.6,3.5-1.9,3.7-2.3c0.2-0.5,0.2-1.6,0.3-3.8c0-0.8,0-1.4,0-1.8c0-7.3,0.1-14.6,0.1-22c0,0,0,0,0,0
		c0-0.5-0.1-0.9-0.2-1c-0.2-0.5-1.1-0.9-1.9-1.1c-0.8-0.2-1.5,0-2,0.1c0-0.4,0-0.8,0-1.2c3-0.7,5.9-1.4,8.9-2
		c5.7,7.4,11.3,14.8,17,22.2c0-3.9,0.1-7.8,0.1-11.6c0-2.9-0.1-5.5-0.2-8.2c0-1-0.1-2.5-1.1-3.2c-0.6-0.4-1.6-0.5-2.1-0.5
		c-0.6,0-1.2,0-1.5,0.1c0-0.5,0-1,0-1.6c3.3-0.5,6.7-0.9,10-1.4C108.5,230.2,108.5,230.7,108.5,231.2z"/>
	<path d="M143.5,244.9c0,2.1,0,4.2,0,6.3c0,1.9,0,3.7,0.1,5.5c-0.7,0-1.3,0.1-2,0.1c0-1.3,0-2.6-0.1-3.8c-0.7,1.2-3.5,5.2-8.8,6.7
		c-4.2,1.2-10,0.9-13.8-2.8c-3.8-3.8-3.7-9.5-3.7-12c0-1.4,0.2-3,0.2-3.1c0.1-0.9,0.5-3.8,1.6-6.5c1.2-3,4-7.3,9-9.7
		c3.1-1.5,6.3-1.9,8-1.7c2.5,0.3,3.6,0.7,3.6,0.7c0.2,0.1,0.7,0.3,1.4,0.4c0.7,0.1,1.5,0.3,2.1-0.2c0.3-0.3,0.4-0.7,0.5-1.3
		c0.1-0.6,0.1-1.1,0.1-1.5c0.6,0,1.3-0.1,1.9-0.1c-0.1,1.9-0.2,4-0.2,6.1c0,2,0.1,3.9,0.2,5.7c-0.7,0-1.4,0-2,0
		c0-0.5-0.3-5.4-3.9-7.5c-1.6-0.9-3.3-0.9-3.9-0.9c-2.8-0.1-4.7,1.1-5.4,1.5c-2.5,1.5-3.7,3.7-4.6,5.3c-2.4,4.6-2.4,9-2.4,11.5
		c0.1,4.3,0.1,7.8,2.8,10.8c0.4,0.5,3.3,3.7,7.3,3.4c3-0.2,5-2.1,6-3.1c3.7-3.6,4.2-8.3,4.3-9.9
		C142.3,244.9,142.9,244.9,143.5,244.9z"/>
	<path d="M176,239.9c0,2.1,0,4.3,0,6.4c0,1.1,0,2.1,0,3.2c-8.5,1.8-17,3.6-25.5,5.3c0-0.5-0.1-1-0.1-1.4c0.6-0.1,3.3-0.7,4-2.7
		c0.1-0.2,0.1-0.4,0.1-0.6c0-8.8,0-17.6,0-26.4c-0.1-0.3-0.2-0.8-0.6-1.2c-0.8-0.8-2-1-3.3-0.7c0-0.5-0.1-1-0.1-1.6
		c5.3-1,10.6-2.1,15.9-3.1c1.9-0.4,3.8-0.8,5.6-1.1c0.8-0.2,1.6-0.3,2.5-0.5c0,1.5,0,3,0,4.6c0,1.6,0,3.2,0,4.8
		c-0.6,0-1.3,0-1.9,0.1c0.1-0.9,0.1-1.6,0-2.2c0-0.3,0-0.7-0.1-1.4c-0.1-0.9-0.1-1-0.1-1.2c-0.1-0.2-0.4-0.9-1.1-1.3
		c0,0-0.1,0-0.1,0c-0.3-0.1-0.6-0.1-0.9-0.1c-0.6,0-1.3,0.1-2,0.2c-2.3,0.3-4.2,0.8-5.9,1.4c-0.2,0.1-2.5,0.8-3,2.8
		c-0.1,0.5-0.1,1-0.1,1.4c0,3.5,0,7.1,0,10.6c1.4-0.5,2.9-0.9,4.3-1.4c0.5-0.3,1.3-0.9,2-1.9c0.1-0.2,0.6-1,0.8-2.3
		c0.2-1.1,0-1.9-0.1-2.5c0.3,0,0.6,0,1,0c0,4.6,0.1,9.3,0.1,13.9c-0.4,0-0.7,0-1.1,0c0-0.2,0-0.5,0-0.9c-0.1-0.8-0.2-2-0.9-2.9
		c-1.1-1.2-2.9-1.1-3.2-1c-1,0.3-1.9,0.6-2.9,0.9c0,4.7,0,9.4,0,14.1c0,0,0.1,0,0.2,0c1.5-0.2,3.3-0.4,8.2-1.5
		c1.2-0.3,1.5-0.4,2.1-0.6c0.6-0.3,1.7-0.8,2.6-1.9c0.8-1,1.1-1.9,1.2-2.4c0.2-0.6,0.2-1,0.3-1.9c0.1-0.7,0.1-1.7,0.1-2.9
		C174.8,239.9,175.4,239.9,176,239.9z"/>
</g>
<g>
	<path d="M493.8,599.9c0,1.1,0.1,2.2,0.1,3.3c0,1.2-0.1,2.3-0.1,3.4c-7.1,1.5-14.2,2.9-21.3,4.4c0-0.3,0-0.6,0-0.9
		c1.6-1.4,3.5-3.3,5.6-5.7c0.9-1,2.9-3.4,5.3-7.2c4.1-6.3,6.1-9.5,5.6-13.4c-0.1-0.9-0.5-3.7-2.6-4.9c-1.3-0.7-2.8-0.5-3.5-0.3
		c-3.2,0.6-4.9,3.2-5.4,3.9c-0.6-0.2-1.1-0.5-1.7-0.7c0.5-0.8,0.9-1.5,1.4-2.3c0.4-0.5,4.7-6,10.3-5.3c0.7,0.1,3,0.4,4.7,2.2
		c1.7,1.9,1.8,4.3,1.8,5.5c0,2-0.5,3.5-1,5c-1.6,4-3.8,6.4-7.2,10.3c-1.4,1.7-3.6,4.3-6.3,7.7c2.8-0.3,5.2-0.7,7-1
		c2-0.4,3.3-0.7,4.5-1.8c0.8-0.7,1.3-1.6,1.6-2.2C492.9,599.9,493.4,599.9,493.8,599.9z"/>
	<path d="M512.6,568.8c2.3-0.1,4.1,1,4.7,1.3c3.9,2.3,5,7.2,5.6,9.6c0.4,1.6,1.7,8-1.5,14.8c-1,2.1-2.8,6.2-6.9,8.1
		c-0.9,0.4-2.6,1.2-4.8,0.9c-2.4-0.4-4-1.9-4.8-2.7c-4.2-4.2-4.2-10.9-4.3-12.8c0-8.8,4.4-16.1,8.2-18.2
		C510.8,568.9,512.6,568.8,512.6,568.8z M512.7,570.5c0,0-1.2-0.1-2.4,0.7c-2,1.2-4.8,6.5-5,15.8c0,0-0.3,10.3,3.7,14
		c0.2,0.2,0.7,0.7,1.5,0.8c1.6,0.3,3-1,3.6-1.6c3.8-3.5,4.3-12.6,4.4-13.8c0.5-8.8-1.5-13.7-3.3-15
		C513.9,570.6,512.7,570.5,512.7,570.5z"/>
	<path d="M530.4,598.9c0-0.4,0-0.9,0-1.3c0.4,0,1.9,0,3.2-1.2c0.6-0.6,0.9-1.3,1.1-1.7c0-8.3,0-16.5-0.1-24.8c0-0.1,0.1-0.5-0.2-0.9
		c-0.3-0.4-0.8-0.5-1.4-0.3c-1.3,0.2-2.6,0.5-3.8,0.7c0-0.4,0.1-0.9,0.1-1.3c1.9-0.7,4-1.6,6.2-2.8c1.4-0.8,2.7-1.6,3.8-2.4
		c0,10,0.1,20,0.1,30.1c0.2,0.3,0.5,0.9,1.1,1.3c1.3,1,2.8,0.7,3.1,0.7c0,0.3,0,0.7,0,1C539.2,596.9,534.8,597.9,530.4,598.9z"/>
	<path d="M561.6,571.3c1.9-0.4,3.4-0.2,3.9-0.1c0.8,0.1,3,0.4,4.6,1.8c2.6,2.3,2.5,6.1,2.5,7.3c-0.1,4.8-3.2,10.6-8.9,12.4
		c-0.4,0.1-6.5,1.9-10.3-1.7c-2.5-2.4-2.6-5.8-2.7-8.3c-0.2-9,5.1-18,12.8-23.1c3-2,5.8-3,7.7-3.6c0,0.6,0,1.2,0,1.8
		c-2.9,1.2-5,2.6-6.4,3.8c-1.8,1.4-4.1,3.3-5.8,6.5c-1,1.9-1.4,3.7-1.6,4.9C558.4,572.4,559.8,571.6,561.6,571.3z M565.4,574.8
		c-2.5-1.4-5.3-0.1-5.7,0.1c-0.5,0.2-1.9,0.9-2.9,2.5c-1.2,1.7-1.3,3.4-1.3,4.8c-0.1,1.9-0.2,5.2,2.3,7.3c0.3,0.2,2.1,1.7,4.5,1.4
		c2.4-0.3,3.7-2.2,4.4-3c1.3-1.7,1.5-3.5,1.7-4.8c0.2-1.5,0.5-3.7-0.7-5.8C567.3,576.5,566.7,575.5,565.4,574.8z"/>
</g>
</svg>
