<?xml version="1.0" encoding="UTF-8" standalone="no"?>
<!-- Generator: Adobe Illustrator 19.0.0, SVG Export Plug-In . SVG Version: 6.00 Build 0)  -->

<svg
   xmlns:dc="http://purl.org/dc/elements/1.1/"
   xmlns:cc="http://creativecommons.org/ns#"
   xmlns:rdf="http://www.w3.org/1999/02/22-rdf-syntax-ns#"
   xmlns:svg="http://www.w3.org/2000/svg"
   xmlns="http://www.w3.org/2000/svg"
   xmlns:xlink="http://www.w3.org/1999/xlink"
   xmlns:sodipodi="http://sodipodi.sourceforge.net/DTD/sodipodi-0.dtd"
   xmlns:inkscape="http://www.inkscape.org/namespaces/inkscape"
   version="1.1"
   id="Capa_1"
   x="0px"
   y="0px"
   viewBox="0 0 372.96 372.96"
   style="enable-background:new 0 0 372.96 372.96;"
   xml:space="preserve"
   sodipodi:docname="clock.svg"
   inkscape:version="0.92.4 (5da689c313, 2019-01-14)"><metadata
   id="metadata49"><rdf:RDF><cc:Work
       rdf:about=""><dc:format>image/svg+xml</dc:format><dc:type
         rdf:resource="http://purl.org/dc/dcmitype/StillImage" /></cc:Work></rdf:RDF></metadata><defs
   id="defs47"><linearGradient
     inkscape:collect="always"
     id="linearGradient836"><stop
       style="stop-color:#ffffff;stop-opacity:1;"
       offset="0"
       id="stop832" /><stop
       style="stop-color:#ffffff;stop-opacity:0;"
       offset="1"
       id="stop834" /></linearGradient><linearGradient
     inkscape:collect="always"
     xlink:href="#linearGradient836"
     id="linearGradient838"
     x1="177.98"
     y1="184.4809"
     x2="273.66181"
     y2="184.4809"
     gradientUnits="userSpaceOnUse" /><linearGradient
     inkscape:collect="always"
     xlink:href="#linearGradient836"
     id="linearGradient840"
     x1="-0.5"
     y1="186.48"
     x2="373.46"
     y2="186.48"
     gradientUnits="userSpaceOnUse" /></defs><sodipodi:namedview
   pagecolor="#ffffff"
   bordercolor="#666666"
   borderopacity="1"
   objecttolerance="10"
   gridtolerance="10"
   guidetolerance="10"
   inkscape:pageopacity="0"
   inkscape:pageshadow="2"
   inkscape:window-width="1920"
   inkscape:window-height="1017"
   id="namedview45"
   showgrid="false"
   inkscape:zoom="0.63277565"
   inkscape:cx="-70.325078"
   inkscape:cy="186.48"
   inkscape:window-x="-8"
   inkscape:window-y="-8"
   inkscape:window-maximized="1"
   inkscape:current-layer="Capa_1" />
<g
   id="g6"
   style="fill:#ffffff;fill-opacity:1;stroke:#ffffff;stroke-opacity:1">
	<g
   id="g4"
   style="fill:#ffffff;fill-opacity:1;stroke:#ffffff;stroke-opacity:1">
		<path
   d="M186.48,0C83.49,0,0,83.49,0,186.48s83.49,186.48,186.48,186.48s186.48-83.49,186.48-186.48    C372.828,83.545,289.415,0.132,186.48,0z M194.48,356.56v-32.8c0-4.418-3.582-8-8-8s-8,3.582-8,8v32.8    C90.759,352.372,20.588,282.201,16.4,194.48h32.8c4.418,0,8-3.582,8-8s-3.582-8-8-8H16.4C20.588,90.759,90.759,20.588,178.48,16.4    v32.8c0,4.418,3.582,8,8,8s8-3.582,8-8V16.4c87.721,4.188,157.892,74.359,162.08,162.08h-32.8c-4.418,0-8,3.582-8,8s3.582,8,8,8    h0.08h32.8C352.449,282.23,282.232,352.412,194.48,356.56z"
   id="path2"
   style="fill:#ffffff;fill-opacity:1;stroke:#ffffff;stroke-opacity:1" />
	</g>
</g>
<g
   id="g12"
   style="fill:#ffffff;fill-opacity:1;stroke:#ffffff;stroke-opacity:1">
	<g
   id="g10"
   style="fill:#ffffff;fill-opacity:1;stroke:#ffffff;stroke-opacity:1">
		<path
   d="M270.88,260.88l-76.4-77.68v-80.72c0-4.418-3.582-8-8-8s-8,3.582-8,8v84c0.009,2.099,0.842,4.11,2.32,5.6l78.64,80    c3.093,3.159,8.161,3.213,11.32,0.12C273.919,269.107,273.973,264.039,270.88,260.88z"
   id="path8"
   style="fill:#ffffff;fill-opacity:1;stroke:#ffffff;stroke-opacity:1" />
	</g>
</g>
<g
   id="g14">
</g>
<g
   id="g16">
</g>
<g
   id="g18">
</g>
<g
   id="g20">
</g>
<g
   id="g22">
</g>
<g
   id="g24">
</g>
<g
   id="g26">
</g>
<g
   id="g28">
</g>
<g
   id="g30">
</g>
<g
   id="g32">
</g>
<g
   id="g34">
</g>
<g
   id="g36">
</g>
<g
   id="g38">
</g>
<g
   id="g40">
</g>
<g
   id="g42">
</g>
</svg>